<?xml version="1.0" encoding='UTF-8' standalone='no' ?>
<!DOCTYPE score-partwise PUBLIC "-//Recordare//DTD MusicXML 3.0 Partwise//EN" "http://www.musicxml.org/dtds/partwise.dtd">
<score-partwise version="3.0">
 <work>
  <work-title>chocard_des_alpes_1er_example</work-title>
 </work>
 <identification>
  <rights>Copyright © </rights>
  <encoding>
   <encoding-date>2020-07-04</encoding-date>
   <encoder>Luke Poeppel</encoder>
   <software>Sibelius 8.6.1</software>
   <software>Direct export, not from Dolet</software>
   <encoding-description>Sibelius / MusicXML 3.0</encoding-description>
   <supports element="print" type="yes" value="yes" attribute="new-system" />
   <supports element="print" type="yes" value="yes" attribute="new-page" />
   <supports element="accidental" type="yes" />
   <supports element="beam" type="yes" />
   <supports element="stem" type="yes" />
  </encoding>
 </identification>
 <defaults>
  <scaling>
   <millimeters>215.9</millimeters>
   <tenths>1439</tenths>
  </scaling>
  <page-layout>
   <page-height>1862</page-height>
   <page-width>1439</page-width>
   <page-margins type="both">
    <left-margin>100</left-margin>
    <right-margin>100</right-margin>
    <top-margin>100</top-margin>
    <bottom-margin>100</bottom-margin>
   </page-margins>
  </page-layout>
  <system-layout>
   <system-margins>
    <left-margin>22</left-margin>
    <right-margin>0</right-margin>
   </system-margins>
   <system-distance>92</system-distance>
  </system-layout>
  <appearance>
   <line-width type="stem">0.9375</line-width>
   <line-width type="beam">5</line-width>
   <line-width type="staff">0.9375</line-width>
   <line-width type="light barline">1.5625</line-width>
   <line-width type="heavy barline">5</line-width>
   <line-width type="leger">1.5625</line-width>
   <line-width type="ending">1.5625</line-width>
   <line-width type="wedge">1.25</line-width>
   <line-width type="enclosure">0.9375</line-width>
   <line-width type="tuplet bracket">1.25</line-width>
   <line-width type="bracket">5</line-width>
   <line-width type="dashes">1.5625</line-width>
   <line-width type="extend">0.9375</line-width>
   <line-width type="octave shift">1.5625</line-width>
   <line-width type="pedal">1.5625</line-width>
   <line-width type="slur middle">1.5625</line-width>
   <line-width type="slur tip">0.625</line-width>
   <line-width type="tie middle">1.5625</line-width>
   <line-width type="tie tip">0.625</line-width>
   <note-size type="cue">75</note-size>
   <note-size type="grace">60</note-size>
  </appearance>
  <music-font font-family="Opus Std" font-size="17.0079" />
  <lyric-font font-family="Times New Roman" font-size="9.8327" />
  <lyric-language xml:lang="en" />
 </defaults>
 <credit page="1">
  <credit-words default-x="719" default-y="155" font-family="Times New Roman" font-style="normal" font-size="18.8681" font-weight="normal" justify="center" valign="middle">chocard_des_alpes_1er_example</credit-words>
 </credit>
 <part-list>
  <score-part id="P1">
   <part-name> </part-name>
   <part-name-display>
    <display-text> </display-text>
   </part-name-display>
   <part-abbreviation> </part-abbreviation>
   <part-abbreviation-display>
    <display-text> </display-text>
   </part-abbreviation-display>
   <score-instrument id="P1-I1">
    <instrument-name> </instrument-name>
    <virtual-instrument>
     <virtual-library>General MIDI</virtual-library>
     <virtual-name>Bright Piano</virtual-name>
    </virtual-instrument>
   </score-instrument>
  </score-part>
 </part-list>
 <part id="P1">
  <!--============== Part: P1, Measure: 1 ==============-->
  <measure number="1" width="361">
   <print new-page="yes">
    <system-layout>
     <system-margins>
      <left-margin>22</left-margin>
      <right-margin>0</right-margin>
     </system-margins>
     <top-system-distance>217</top-system-distance>
    </system-layout>
   </print>
   <attributes>
    <divisions>256</divisions>
    <key color="#000000">
     <fifths>0</fifths>
     <mode>none</mode>
    </key>
    <time color="#000000">
     <beats>31</beats>
     <beat-type>32</beat-type>
    </time>
    <staves>1</staves>
    <clef number="1" color="#000000">
     <sign>G</sign>
     <line>2</line>
    </clef>
    <staff-details number="1" print-object="yes" />
   </attributes>
   <direction>
    <direction-type>
     <dynamics default-x="85" default-y="-84" color="#000000" font-family="Opus Text Std" font-style="normal" font-size="10.2313" font-weight="normal">
      <f />
     </dynamics>
    </direction-type>
    <voice>1</voice>
    <staff>1</staff>
   </direction>
   <direction>
    <direction-type>
     <words default-y="51" relative-y="26" justify="left" valign="middle" font-family="Times New Roman" font-style="normal" font-size="11.1614" font-weight="bold">un peu vif</words>
    </direction-type>
    <voice>1</voice>
    <staff>1</staff>
   </direction>
   <direction>
    <direction-type>
     <metronome default-y="51" color="#000000" font-family="Times New Roman" font-style="normal" font-size="11.1614" font-weight="bold">
      <beat-unit>quarter</beat-unit>
      <per-minute>120</per-minute>
     </metronome>
    </direction-type>
    <voice>1</voice>
    <staff>1</staff>
   </direction>
   <note color="#000000" default-x="91" default-y="-69">
    <pitch>
     <step>D</step>
     <octave>6</octave>
    </pitch>
    <duration>32</duration>
    <instrument id="P1-I1" />
    <voice>1</voice>
    <type>32nd</type>
    <accidental>natural</accidental>
    <stem>down</stem>
    <staff>1</staff>
    <beam number="1">begin</beam>
    <beam number="2">begin</beam>
    <beam number="3">begin</beam>
    <notations>
     <slur color="#000000" type="start" orientation="over" />
    </notations>
   </note>
   <note color="#000000" default-x="122" default-y="-69">
    <pitch>
     <step>E</step>
     <alter>-1</alter>
     <octave>5</octave>
    </pitch>
    <duration>32</duration>
    <instrument id="P1-I1" />
    <voice>1</voice>
    <type>32nd</type>
    <accidental>flat</accidental>
    <stem>down</stem>
    <staff>1</staff>
    <beam number="1">continue</beam>
    <beam number="2">continue</beam>
    <beam number="3">continue</beam>
   </note>
   <note color="#000000" default-x="148" default-y="-69">
    <pitch>
     <step>F</step>
     <octave>4</octave>
    </pitch>
    <duration>32</duration>
    <instrument id="P1-I1" />
    <voice>1</voice>
    <type>32nd</type>
    <accidental>natural</accidental>
    <stem>down</stem>
    <staff>1</staff>
    <beam number="1">end</beam>
    <beam number="2">end</beam>
    <beam number="3">end</beam>
   </note>
   <direction>
    <direction-type>
     <wedge default-x="11" default-y="-79" color="#000000" type="diminuendo" />
    </direction-type>
    <voice>1</voice>
    <staff>1</staff>
   </direction>
   <note color="#000000" default-x="177" default-y="-27">
    <pitch>
     <step>B</step>
     <octave>5</octave>
    </pitch>
    <duration>384</duration>
    <instrument id="P1-I1" />
    <voice>1</voice>
    <type>quarter</type>
    <dot />
    <accidental>natural</accidental>
    <stem>down</stem>
    <staff>1</staff>
    <notations>
     <slur color="#000000" type="stop" orientation="over" />
     <ornaments>
      <tremolo type="single">3</tremolo>
     </ornaments>
    </notations>
   </note>
   <direction>
    <direction-type>
     <dynamics default-x="245" default-y="-84" color="#000000" font-family="Opus Text Std" font-style="normal" font-size="10.2313" font-weight="normal">
      <mf />
     </dynamics>
    </direction-type>
    <voice>1</voice>
    <staff>1</staff>
   </direction>
   <direction>
    <direction-type>
     <wedge default-x="-10" default-y="-79" color="#000000" type="stop" />
    </direction-type>
    <voice>1</voice>
    <staff>1</staff>
   </direction>
   <note default-x="251">
    <rest />
    <duration>256</duration>
    <instrument id="P1-I1" />
    <voice>1</voice>
    <type>quarter</type>
    <staff>1</staff>
    <notations>
     <fermata>normal</fermata>
    </notations>
   </note>
   <note default-x="306">
    <rest />
    <duration>256</duration>
    <instrument id="P1-I1" />
    <voice>1</voice>
    <type>quarter</type>
    <staff>1</staff>
    <notations>
     <fermata>normal</fermata>
    </notations>
   </note>
  </measure>
  <!--============== Part: P1, Measure: 2 ==============-->
  <measure number="2" width="278">
   <attributes>
    <time color="#000000">
     <beats>21</beats>
     <beat-type>32</beat-type>
    </time>
   </attributes>
   <direction>
    <direction-type>
     <dynamics default-x="42" default-y="-84" color="#000000" font-family="Opus Text Std" font-style="normal" font-size="10.2313" font-weight="normal">
      <f />
     </dynamics>
    </direction-type>
    <voice>1</voice>
    <staff>1</staff>
   </direction>
   <note color="#000000" default-x="48" default-y="-40">
    <pitch>
     <step>E</step>
     <alter>-1</alter>
     <octave>5</octave>
    </pitch>
    <duration>32</duration>
    <instrument id="P1-I1" />
    <voice>1</voice>
    <type>32nd</type>
    <accidental>flat</accidental>
    <stem>down</stem>
    <staff>1</staff>
    <beam number="1">begin</beam>
    <beam number="2">begin</beam>
    <beam number="3">begin</beam>
    <notations>
     <slur color="#000000" type="start" orientation="over" />
    </notations>
   </note>
   <note color="#000000" default-x="79" default-y="-40">
    <pitch>
     <step>F</step>
     <alter>1</alter>
     <octave>6</octave>
    </pitch>
    <duration>32</duration>
    <instrument id="P1-I1" />
    <voice>1</voice>
    <type>32nd</type>
    <accidental>sharp</accidental>
    <stem>down</stem>
    <staff>1</staff>
    <beam number="1">continue</beam>
    <beam number="2">continue</beam>
    <beam number="3">continue</beam>
   </note>
   <note color="#000000" default-x="109" default-y="-40">
    <pitch>
     <step>F</step>
     <octave>5</octave>
    </pitch>
    <duration>32</duration>
    <instrument id="P1-I1" />
    <voice>1</voice>
    <type>32nd</type>
    <accidental>natural</accidental>
    <stem>down</stem>
    <staff>1</staff>
    <beam number="1">end</beam>
    <beam number="2">end</beam>
    <beam number="3">end</beam>
   </note>
   <note color="#000000" default-x="137" default-y="-15">
    <pitch>
     <step>C</step>
     <octave>4</octave>
    </pitch>
    <duration>64</duration>
    <instrument id="P1-I1" />
    <voice>1</voice>
    <type>16th</type>
    <accidental>natural</accidental>
    <stem>up</stem>
    <staff>1</staff>
    <notations>
     <slur color="#000000" type="stop" orientation="over" />
     <articulations>
      <staccato />
     </articulations>
    </notations>
   </note>
   <note default-x="167">
    <rest />
    <duration>256</duration>
    <instrument id="P1-I1" />
    <voice>1</voice>
    <type>quarter</type>
    <staff>1</staff>
   </note>
   <note default-x="223">
    <rest />
    <duration>256</duration>
    <instrument id="P1-I1" />
    <voice>1</voice>
    <type>quarter</type>
    <staff>1</staff>
   </note>
  </measure>
  <!--============== Part: P1, Measure: 3 ==============-->
  <measure number="3" width="300">
   <attributes>
    <time color="#000000">
     <beats>11</beats>
     <beat-type>16</beat-type>
    </time>
   </attributes>
   <direction>
    <direction-type>
     <dynamics default-x="37" default-y="-84" color="#000000" font-family="Opus Text Std" font-style="normal" font-size="10.2313" font-weight="normal">
      <f />
     </dynamics>
    </direction-type>
    <voice>1</voice>
    <staff>1</staff>
   </direction>
   <note color="#000000" default-x="43" default-y="-40">
    <pitch>
     <step>E</step>
     <alter>-1</alter>
     <octave>5</octave>
    </pitch>
    <duration>32</duration>
    <instrument id="P1-I1" />
    <voice>1</voice>
    <type>32nd</type>
    <accidental>flat</accidental>
    <stem>down</stem>
    <staff>1</staff>
    <beam number="1">begin</beam>
    <beam number="2">begin</beam>
    <beam number="3">begin</beam>
   </note>
   <note color="#000000" default-x="75" default-y="-40">
    <pitch>
     <step>F</step>
     <alter>1</alter>
     <octave>6</octave>
    </pitch>
    <duration>32</duration>
    <instrument id="P1-I1" />
    <voice>1</voice>
    <type>32nd</type>
    <accidental>sharp</accidental>
    <stem>down</stem>
    <staff>1</staff>
    <beam number="1">continue</beam>
    <beam number="2">continue</beam>
    <beam number="3">continue</beam>
   </note>
   <note color="#000000" default-x="101" default-y="-40">
    <pitch>
     <step>F</step>
     <alter>1</alter>
     <octave>6</octave>
    </pitch>
    <duration>32</duration>
    <instrument id="P1-I1" />
    <voice>1</voice>
    <type>32nd</type>
    <stem>down</stem>
    <staff>1</staff>
    <beam number="1">continue</beam>
    <beam number="2">continue</beam>
    <beam number="3">continue</beam>
   </note>
   <note color="#000000" default-x="127" default-y="-40">
    <pitch>
     <step>F</step>
     <alter>1</alter>
     <octave>6</octave>
    </pitch>
    <duration>32</duration>
    <instrument id="P1-I1" />
    <voice>1</voice>
    <type>32nd</type>
    <stem>down</stem>
    <staff>1</staff>
    <beam number="1">end</beam>
    <beam number="2">end</beam>
    <beam number="3">end</beam>
   </note>
   <note color="#000000" default-x="159" default-y="-15">
    <pitch>
     <step>C</step>
     <octave>4</octave>
    </pitch>
    <duration>64</duration>
    <instrument id="P1-I1" />
    <voice>1</voice>
    <type>16th</type>
    <accidental>natural</accidental>
    <stem>up</stem>
    <staff>1</staff>
    <notations>
     <articulations>
      <staccato />
     </articulations>
    </notations>
   </note>
   <note default-x="190">
    <rest />
    <duration>256</duration>
    <instrument id="P1-I1" />
    <voice>1</voice>
    <type>quarter</type>
    <staff>1</staff>
   </note>
   <note default-x="245">
    <rest />
    <duration>256</duration>
    <instrument id="P1-I1" />
    <voice>1</voice>
    <type>quarter</type>
    <staff>1</staff>
   </note>
  </measure>
  <!--============== Part: P1, Measure: 4 ==============-->
  <measure number="4" width="240">
   <attributes>
    <time color="#000000">
     <beats>10</beats>
     <beat-type>16</beat-type>
    </time>
   </attributes>
   <direction>
    <direction-type>
     <dynamics default-x="39" default-y="-84" color="#000000" font-family="Opus Text Std" font-style="normal" font-size="10.2313" font-weight="normal">
      <ff />
     </dynamics>
    </direction-type>
    <voice>1</voice>
    <staff>1</staff>
   </direction>
   <note color="#000000" default-x="45" default-y="-39">
    <pitch>
     <step>F</step>
     <octave>5</octave>
    </pitch>
    <duration>32</duration>
    <instrument id="P1-I1" />
    <voice>1</voice>
    <type>32nd</type>
    <accidental>natural</accidental>
    <stem>down</stem>
    <staff>1</staff>
    <beam number="1">begin</beam>
    <beam number="2">begin</beam>
    <beam number="3">begin</beam>
   </note>
   <note color="#000000" default-x="71" default-y="-39">
    <pitch>
     <step>F</step>
     <octave>5</octave>
    </pitch>
    <duration>32</duration>
    <instrument id="P1-I1" />
    <voice>1</voice>
    <type>32nd</type>
    <stem>down</stem>
    <staff>1</staff>
    <beam number="1">end</beam>
    <beam number="2">end</beam>
    <beam number="3">end</beam>
   </note>
   <note color="#000000" default-x="99" default-y="-20">
    <pitch>
     <step>B</step>
     <octave>5</octave>
    </pitch>
    <duration>64</duration>
    <instrument id="P1-I1" />
    <voice>1</voice>
    <type>16th</type>
    <accidental>natural</accidental>
    <stem>down</stem>
    <staff>1</staff>
    <notations>
     <articulations>
      <staccato />
      <accent />
     </articulations>
    </notations>
   </note>
   <note default-x="130">
    <rest />
    <duration>256</duration>
    <instrument id="P1-I1" />
    <voice>1</voice>
    <type>quarter</type>
    <staff>1</staff>
   </note>
   <note default-x="185">
    <rest />
    <duration>256</duration>
    <instrument id="P1-I1" />
    <voice>1</voice>
    <type>quarter</type>
    <staff>1</staff>
   </note>
  </measure>
  <!--============== Part: P1, Measure: 5 ==============-->
  <measure number="5" width="355">
   <print new-system="yes">
    <system-layout>
     <system-margins>
      <left-margin>22</left-margin>
      <right-margin>0</right-margin>
     </system-margins>
     <system-distance>136</system-distance>
    </system-layout>
   </print>
   <attributes>
    <time color="#000000">
     <beats>27</beats>
     <beat-type>32</beat-type>
    </time>
    <staff-details number="1" print-object="yes" />
   </attributes>
   <direction>
    <direction-type>
     <dynamics default-x="86" default-y="-84" color="#000000" font-family="Opus Text Std" font-style="normal" font-size="10.2313" font-weight="normal">
      <f />
     </dynamics>
    </direction-type>
    <voice>1</voice>
    <staff>1</staff>
   </direction>
   <note color="#000000" default-x="92" default-y="-29">
    <pitch>
     <step>G</step>
     <octave>6</octave>
    </pitch>
    <duration>32</duration>
    <instrument id="P1-I1" />
    <voice>1</voice>
    <type>32nd</type>
    <accidental>natural</accidental>
    <stem>down</stem>
    <staff>1</staff>
    <beam number="1">begin</beam>
    <beam number="2">begin</beam>
    <beam number="3">begin</beam>
    <notations>
     <slur color="#000000" type="start" orientation="over" />
     <articulations>
      <accent />
     </articulations>
    </notations>
   </note>
   <note color="#000000" default-x="126" default-y="-29">
    <pitch>
     <step>A</step>
     <alter>-1</alter>
     <octave>5</octave>
    </pitch>
    <duration>32</duration>
    <instrument id="P1-I1" />
    <voice>1</voice>
    <type>32nd</type>
    <accidental>flat</accidental>
    <stem>down</stem>
    <staff>1</staff>
    <beam number="1">end</beam>
    <beam number="2">end</beam>
    <beam number="3">end</beam>
   </note>
   <note color="#000000" default-x="159">
    <pitch>
     <step>F</step>
     <alter>1</alter>
     <octave>4</octave>
    </pitch>
    <duration>64</duration>
    <instrument id="P1-I1" />
    <voice>1</voice>
    <type>16th</type>
    <accidental>sharp</accidental>
    <stem>up</stem>
    <staff>1</staff>
    <notations>
     <slur color="#000000" type="stop" orientation="over" />
     <articulations>
      <staccato />
     </articulations>
    </notations>
   </note>
   <note default-x="182">
    <rest />
    <duration>128</duration>
    <instrument id="P1-I1" />
    <voice>1</voice>
    <type>eighth</type>
    <staff>1</staff>
   </note>
   <direction>
    <direction-type>
     <dynamics default-x="206" default-y="-84" color="#000000" font-family="Opus Text Std" font-style="normal" font-size="10.2313" font-weight="normal">
      <f />
     </dynamics>
    </direction-type>
    <voice>1</voice>
    <staff>1</staff>
   </direction>
   <note color="#000000" default-x="212" default-y="-20">
    <pitch>
     <step>G</step>
     <octave>6</octave>
    </pitch>
    <duration>32</duration>
    <instrument id="P1-I1" />
    <voice>1</voice>
    <type>32nd</type>
    <accidental>natural</accidental>
    <stem>down</stem>
    <staff>1</staff>
    <notations>
     <slur color="#000000" type="start" orientation="over" />
     <articulations>
      <accent />
     </articulations>
    </notations>
   </note>
   <note color="#000000" default-x="245">
    <pitch>
     <step>F</step>
     <alter>1</alter>
     <octave>4</octave>
    </pitch>
    <duration>64</duration>
    <instrument id="P1-I1" />
    <voice>1</voice>
    <type>16th</type>
    <accidental>sharp</accidental>
    <stem>up</stem>
    <staff>1</staff>
    <notations>
     <slur color="#000000" type="stop" orientation="over" />
     <articulations>
      <staccato />
     </articulations>
    </notations>
   </note>
   <note default-x="272">
    <rest />
    <duration>256</duration>
    <instrument id="P1-I1" />
    <voice>1</voice>
    <type>quarter</type>
    <staff>1</staff>
   </note>
   <note default-x="314">
    <rest />
    <duration>256</duration>
    <instrument id="P1-I1" />
    <voice>1</voice>
    <type>quarter</type>
    <staff>1</staff>
   </note>
  </measure>
  <!--============== Part: P1, Measure: 6 ==============-->
  <measure number="6" width="274">
   <attributes>
    <time color="#000000">
     <beats>31</beats>
     <beat-type>32</beat-type>
    </time>
   </attributes>
   <direction>
    <direction-type>
     <dynamics default-x="42" default-y="-84" color="#000000" font-family="Opus Text Std" font-style="normal" font-size="10.2313" font-weight="normal">
      <f />
     </dynamics>
    </direction-type>
    <voice>1</voice>
    <staff>1</staff>
   </direction>
   <note color="#000000" default-x="48" default-y="-69">
    <pitch>
     <step>D</step>
     <octave>6</octave>
    </pitch>
    <duration>32</duration>
    <instrument id="P1-I1" />
    <voice>1</voice>
    <type>32nd</type>
    <accidental>natural</accidental>
    <stem>down</stem>
    <staff>1</staff>
    <beam number="1">begin</beam>
    <beam number="2">begin</beam>
    <beam number="3">begin</beam>
    <notations>
     <slur color="#000000" type="start" orientation="over" />
    </notations>
   </note>
   <note color="#000000" default-x="80" default-y="-69">
    <pitch>
     <step>E</step>
     <alter>-1</alter>
     <octave>5</octave>
    </pitch>
    <duration>32</duration>
    <instrument id="P1-I1" />
    <voice>1</voice>
    <type>32nd</type>
    <accidental>flat</accidental>
    <stem>down</stem>
    <staff>1</staff>
    <beam number="1">continue</beam>
    <beam number="2">continue</beam>
    <beam number="3">continue</beam>
   </note>
   <note color="#000000" default-x="106" default-y="-69">
    <pitch>
     <step>F</step>
     <octave>4</octave>
    </pitch>
    <duration>32</duration>
    <instrument id="P1-I1" />
    <voice>1</voice>
    <type>32nd</type>
    <accidental>natural</accidental>
    <stem>down</stem>
    <staff>1</staff>
    <beam number="1">end</beam>
    <beam number="2">end</beam>
    <beam number="3">end</beam>
   </note>
   <direction>
    <direction-type>
     <wedge default-x="11" default-y="-79" color="#000000" type="diminuendo" />
    </direction-type>
    <voice>1</voice>
    <staff>1</staff>
   </direction>
   <note color="#000000" default-x="134" default-y="-27">
    <pitch>
     <step>B</step>
     <octave>5</octave>
    </pitch>
    <duration>384</duration>
    <instrument id="P1-I1" />
    <voice>1</voice>
    <type>quarter</type>
    <dot />
    <accidental>natural</accidental>
    <stem>down</stem>
    <staff>1</staff>
    <notations>
     <slur color="#000000" type="stop" orientation="over" />
     <ornaments>
      <tremolo type="single">3</tremolo>
     </ornaments>
    </notations>
   </note>
   <direction>
    <direction-type>
     <dynamics default-x="185" default-y="-84" color="#000000" font-family="Opus Text Std" font-style="normal" font-size="10.2313" font-weight="normal">
      <mf />
     </dynamics>
    </direction-type>
    <voice>1</voice>
    <staff>1</staff>
   </direction>
   <direction>
    <direction-type>
     <wedge default-x="-10" default-y="-79" color="#000000" type="stop" />
    </direction-type>
    <voice>1</voice>
    <staff>1</staff>
   </direction>
   <note default-x="190">
    <rest />
    <duration>256</duration>
    <instrument id="P1-I1" />
    <voice>1</voice>
    <type>quarter</type>
    <staff>1</staff>
   </note>
   <note default-x="232">
    <rest />
    <duration>256</duration>
    <instrument id="P1-I1" />
    <voice>1</voice>
    <type>quarter</type>
    <staff>1</staff>
   </note>
  </measure>
  <!--============== Part: P1, Measure: 7 ==============-->
  <measure number="7" width="233">
   <attributes>
    <time color="#000000">
     <beats>7</beats>
     <beat-type>16</beat-type>
    </time>
   </attributes>
   <direction>
    <direction-type>
     <dynamics default-x="38" default-y="-84" color="#000000" font-family="Opus Text Std" font-style="normal" font-size="10.2313" font-weight="normal">
      <f />
     </dynamics>
    </direction-type>
    <voice>1</voice>
    <staff>1</staff>
   </direction>
   <note color="#000000" default-x="44" default-y="-49">
    <pitch>
     <step>D</step>
     <octave>6</octave>
    </pitch>
    <duration>32</duration>
    <instrument id="P1-I1" />
    <voice>1</voice>
    <type>32nd</type>
    <accidental>natural</accidental>
    <stem>down</stem>
    <staff>1</staff>
    <beam number="1">begin</beam>
    <beam number="2">begin</beam>
    <beam number="3">begin</beam>
    <notations>
     <slur color="#000000" type="start" orientation="over" />
    </notations>
   </note>
   <note color="#000000" default-x="75" default-y="-49">
    <pitch>
     <step>E</step>
     <alter>-1</alter>
     <octave>5</octave>
    </pitch>
    <duration>32</duration>
    <instrument id="P1-I1" />
    <voice>1</voice>
    <type>32nd</type>
    <accidental>flat</accidental>
    <stem>down</stem>
    <staff>1</staff>
    <beam number="1">continue</beam>
    <beam number="2">continue</beam>
    <beam number="3">continue</beam>
   </note>
   <note color="#000000" default-x="104" default-y="-49">
    <pitch>
     <step>D</step>
     <octave>6</octave>
    </pitch>
    <duration>32</duration>
    <instrument id="P1-I1" />
    <voice>1</voice>
    <type>32nd</type>
    <accidental>natural</accidental>
    <stem>down</stem>
    <staff>1</staff>
    <beam number="1">continue</beam>
    <beam number="2">continue</beam>
    <beam number="3">continue</beam>
   </note>
   <note color="#000000" default-x="135" default-y="-49">
    <pitch>
     <step>E</step>
     <alter>-1</alter>
     <octave>5</octave>
    </pitch>
    <duration>32</duration>
    <instrument id="P1-I1" />
    <voice>1</voice>
    <type>32nd</type>
    <accidental>flat</accidental>
    <stem>down</stem>
    <staff>1</staff>
    <beam number="1">end</beam>
    <beam number="2">end</beam>
    <beam number="3">end</beam>
   </note>
   <note color="#000000" default-x="163" default-y="10">
    <pitch>
     <step>A</step>
     <alter>-1</alter>
     <octave>4</octave>
    </pitch>
    <duration>64</duration>
    <instrument id="P1-I1" />
    <voice>1</voice>
    <type>16th</type>
    <accidental>flat</accidental>
    <stem>up</stem>
    <staff>1</staff>
    <notations>
     <slur color="#000000" type="stop" orientation="over" />
     <articulations>
      <staccato />
     </articulations>
    </notations>
   </note>
   <note default-x="191">
    <rest />
    <duration>256</duration>
    <instrument id="P1-I1" />
    <voice>1</voice>
    <type>quarter</type>
    <staff>1</staff>
    <notations>
     <fermata>normal</fermata>
    </notations>
   </note>
  </measure>
  <!--============== Part: P1, Measure: 8 ==============-->
  <measure number="8" width="322">
   <attributes>
    <time color="#000000">
     <beats>9</beats>
     <beat-type>8</beat-type>
    </time>
   </attributes>
   <direction>
    <direction-type>
     <dynamics default-x="27" default-y="-84" color="#000000" font-family="Opus Text Std" font-style="normal" font-size="10.2313" font-weight="normal">
      <f />
     </dynamics>
    </direction-type>
    <voice>1</voice>
    <staff>1</staff>
   </direction>
   <direction>
    <direction-type>
     <wedge default-x="13" default-y="-79" color="#000000" type="crescendo" />
    </direction-type>
    <voice>1</voice>
    <staff>1</staff>
   </direction>
   <note color="#000000" default-x="33" default-y="-62">
    <pitch>
     <step>E</step>
     <octave>6</octave>
    </pitch>
    <duration>32</duration>
    <instrument id="P1-I1" />
    <voice>1</voice>
    <type>32nd</type>
    <accidental>natural</accidental>
    <stem>down</stem>
    <staff>1</staff>
    <beam number="1">begin</beam>
    <beam number="2">begin</beam>
    <beam number="3">begin</beam>
    <notations>
     <slur color="#000000" type="start" orientation="over" />
    </notations>
   </note>
   <note color="#000000" default-x="65" default-y="-62">
    <pitch>
     <step>A</step>
     <octave>5</octave>
    </pitch>
    <duration>32</duration>
    <instrument id="P1-I1" />
    <voice>1</voice>
    <type>32nd</type>
    <accidental>natural</accidental>
    <stem>down</stem>
    <staff>1</staff>
    <beam number="1">continue</beam>
    <beam number="2">continue</beam>
    <beam number="3">continue</beam>
   </note>
   <direction>
    <direction-type>
     <wedge default-x="11" default-y="-79" color="#000000" type="stop" />
    </direction-type>
    <voice>1</voice>
    <staff>1</staff>
   </direction>
   <note color="#000000" default-x="96" default-y="-62">
    <pitch>
     <step>B</step>
     <alter>-1</alter>
     <octave>4</octave>
    </pitch>
    <duration>32</duration>
    <instrument id="P1-I1" />
    <voice>1</voice>
    <type>32nd</type>
    <accidental>flat</accidental>
    <stem>down</stem>
    <staff>1</staff>
    <beam number="1">continue</beam>
    <beam number="2">continue</beam>
    <beam number="3">continue</beam>
   </note>
   <direction>
    <direction-type>
     <dynamics default-x="121" default-y="-84" color="#000000" font-family="Opus Text Std" font-style="normal" font-size="10.2313" font-weight="normal">
      <ff />
     </dynamics>
    </direction-type>
    <voice>1</voice>
    <staff>1</staff>
   </direction>
   <direction>
    <direction-type>
     <wedge default-x="24" default-y="-79" color="#000000" type="diminuendo" />
    </direction-type>
    <voice>1</voice>
    <staff>1</staff>
   </direction>
   <note color="#000000" default-x="127" default-y="-62">
    <pitch>
     <step>A</step>
     <alter>-1</alter>
     <octave>5</octave>
    </pitch>
    <duration>32</duration>
    <instrument id="P1-I1" />
    <voice>1</voice>
    <type>32nd</type>
    <accidental>flat</accidental>
    <stem>down</stem>
    <staff>1</staff>
    <beam number="1">end</beam>
    <beam number="2">end</beam>
    <beam number="3">end</beam>
   </note>
   <note color="#000000" default-x="168" default-y="-57">
    <pitch>
     <step>C</step>
     <alter>1</alter>
     <octave>5</octave>
    </pitch>
    <duration>512</duration>
    <instrument id="P1-I1" />
    <voice>1</voice>
    <type>half</type>
    <accidental>sharp</accidental>
    <stem>down</stem>
    <staff>1</staff>
    <notations>
     <ornaments>
      <tremolo type="single">3</tremolo>
     </ornaments>
     <articulations>
      <tenuto />
     </articulations>
    </notations>
   </note>
   <note color="#000000" default-x="168">
    <chord />
    <pitch>
     <step>G</step>
     <octave>5</octave>
    </pitch>
    <duration>512</duration>
    <instrument id="P1-I1" />
    <type>half</type>
    <accidental>natural</accidental>
    <staff>1</staff>
    <notations>
     <ornaments>
      <tremolo type="single">3</tremolo>
     </ornaments>
    </notations>
   </note>
   <note color="#000000" default-x="168">
    <chord />
    <pitch>
     <step>D</step>
     <octave>6</octave>
    </pitch>
    <duration>512</duration>
    <instrument id="P1-I1" />
    <type>half</type>
    <accidental>natural</accidental>
    <staff>1</staff>
    <notations>
     <slur color="#000000" type="stop" orientation="over" />
     <ornaments>
      <tremolo type="single">3</tremolo>
     </ornaments>
    </notations>
   </note>
   <direction>
    <direction-type>
     <dynamics default-x="233" default-y="-84" color="#000000" font-family="Opus Text Std" font-style="normal" font-size="10.2313" font-weight="normal">
      <pp />
     </dynamics>
    </direction-type>
    <voice>1</voice>
    <staff>1</staff>
   </direction>
   <direction>
    <direction-type>
     <wedge default-y="-79" color="#000000" type="stop" />
    </direction-type>
    <offset sound="no">-153</offset>
    <voice>1</voice>
    <staff>1</staff>
   </direction>
   <note default-x="239">
    <rest />
    <duration>256</duration>
    <instrument id="P1-I1" />
    <voice>1</voice>
    <type>quarter</type>
    <staff>1</staff>
    <notations>
     <fermata>normal</fermata>
    </notations>
   </note>
   <note default-x="280">
    <rest />
    <duration>256</duration>
    <instrument id="P1-I1" />
    <voice>1</voice>
    <type>quarter</type>
    <staff>1</staff>
    <notations>
     <fermata>normal</fermata>
    </notations>
   </note>
  </measure>
  <!--============== Part: P1, Measure: 9 ==============-->
  <measure number="9" width="336">
   <print new-system="yes">
    <system-layout>
     <system-margins>
      <left-margin>22</left-margin>
      <right-margin>0</right-margin>
     </system-margins>
     <system-distance>126</system-distance>
    </system-layout>
   </print>
   <attributes>
    <time color="#000000">
     <beats>5</beats>
     <beat-type>16</beat-type>
    </time>
    <staff-details number="1" print-object="yes" />
   </attributes>
   <direction>
    <direction-type>
     <dynamics default-x="81" default-y="-81" color="#000000" font-family="Opus Text Std" font-style="normal" font-size="10.2313" font-weight="normal">
      <f />
     </dynamics>
    </direction-type>
    <voice>1</voice>
    <staff>1</staff>
   </direction>
   <direction>
    <direction-type>
     <wedge default-x="13" default-y="-76" color="#000000" type="crescendo" />
    </direction-type>
    <voice>1</voice>
    <staff>1</staff>
   </direction>
   <note color="#000000" default-x="87" default-y="-59">
    <pitch>
     <step>C</step>
     <alter>1</alter>
     <octave>5</octave>
    </pitch>
    <duration>32</duration>
    <instrument id="P1-I1" />
    <voice>1</voice>
    <type>32nd</type>
    <accidental>sharp</accidental>
    <stem>down</stem>
    <staff>1</staff>
    <beam number="1">begin</beam>
    <beam number="2">begin</beam>
    <beam number="3">begin</beam>
    <notations>
     <slur color="#000000" type="start" orientation="over" />
    </notations>
   </note>
   <note color="#000000" default-x="124" default-y="-59">
    <pitch>
     <step>A</step>
     <octave>5</octave>
    </pitch>
    <duration>32</duration>
    <instrument id="P1-I1" />
    <voice>1</voice>
    <type>32nd</type>
    <accidental>natural</accidental>
    <stem>down</stem>
    <staff>1</staff>
    <beam number="1">continue</beam>
    <beam number="2">continue</beam>
    <beam number="3">continue</beam>
   </note>
   <direction>
    <direction-type>
     <dynamics default-x="155" default-y="-81" color="#000000" font-family="Opus Text Std" font-style="normal" font-size="10.2313" font-weight="normal">
      <ff />
     </dynamics>
    </direction-type>
    <voice>1</voice>
    <staff>1</staff>
   </direction>
   <direction>
    <direction-type>
     <wedge default-x="-15" default-y="-76" color="#000000" type="stop" />
    </direction-type>
    <voice>1</voice>
    <staff>1</staff>
   </direction>
   <direction>
    <direction-type>
     <wedge default-x="24" default-y="-76" color="#000000" type="diminuendo" number="2" />
    </direction-type>
    <voice>1</voice>
    <staff>1</staff>
   </direction>
   <note color="#000000" default-x="161" default-y="-59">
    <pitch>
     <step>E</step>
     <octave>6</octave>
    </pitch>
    <duration>32</duration>
    <instrument id="P1-I1" />
    <voice>1</voice>
    <type>32nd</type>
    <accidental>natural</accidental>
    <stem>down</stem>
    <staff>1</staff>
    <beam number="1">continue</beam>
    <beam number="2">continue</beam>
    <beam number="3">continue</beam>
   </note>
   <note color="#000000" default-x="199" default-y="-59">
    <pitch>
     <step>A</step>
     <alter>-1</alter>
     <octave>5</octave>
    </pitch>
    <duration>32</duration>
    <instrument id="P1-I1" />
    <voice>1</voice>
    <type>32nd</type>
    <accidental>flat</accidental>
    <stem>down</stem>
    <staff>1</staff>
    <beam number="1">end</beam>
    <beam number="2">end</beam>
    <beam number="3">end</beam>
   </note>
   <direction>
    <direction-type>
     <dynamics default-x="230" default-y="-81" color="#000000" font-family="Opus Text Std" font-style="normal" font-size="10.2313" font-weight="normal">
      <f />
     </dynamics>
    </direction-type>
    <voice>1</voice>
    <staff>1</staff>
   </direction>
   <direction>
    <direction-type>
     <wedge default-x="-15" default-y="-76" color="#000000" type="stop" number="2" />
    </direction-type>
    <voice>1</voice>
    <staff>1</staff>
   </direction>
   <note color="#000000" default-x="236" default-y="-55">
    <pitch>
     <step>B</step>
     <alter>-1</alter>
     <octave>4</octave>
    </pitch>
    <duration>64</duration>
    <instrument id="P1-I1" />
    <voice>1</voice>
    <type>16th</type>
    <accidental>flat</accidental>
    <stem>down</stem>
    <staff>1</staff>
    <notations>
     <slur color="#000000" type="stop" orientation="over" />
     <articulations>
      <staccato />
     </articulations>
    </notations>
   </note>
   <note default-x="279">
    <rest />
    <duration>128</duration>
    <instrument id="P1-I1" />
    <voice>1</voice>
    <type>eighth</type>
    <staff>1</staff>
   </note>
  </measure>
  <!--============== Part: P1, Measure: 10 ==============-->
  <measure number="10" width="294">
   <attributes>
    <time color="#000000">
     <beats>5</beats>
     <beat-type>16</beat-type>
    </time>
   </attributes>
   <direction>
    <direction-type>
     <dynamics default-x="38" default-y="-81" color="#000000" font-family="Opus Text Std" font-style="normal" font-size="10.2313" font-weight="normal">
      <f />
     </dynamics>
    </direction-type>
    <voice>1</voice>
    <staff>1</staff>
   </direction>
   <direction>
    <direction-type>
     <wedge default-x="13" default-y="-76" color="#000000" type="crescendo" />
    </direction-type>
    <voice>1</voice>
    <staff>1</staff>
   </direction>
   <note color="#000000" default-x="44" default-y="-59">
    <pitch>
     <step>C</step>
     <alter>1</alter>
     <octave>5</octave>
    </pitch>
    <duration>32</duration>
    <instrument id="P1-I1" />
    <voice>1</voice>
    <type>32nd</type>
    <accidental>sharp</accidental>
    <stem>down</stem>
    <staff>1</staff>
    <beam number="1">begin</beam>
    <beam number="2">begin</beam>
    <beam number="3">begin</beam>
    <notations>
     <slur color="#000000" type="start" orientation="over" />
    </notations>
   </note>
   <note color="#000000" default-x="81" default-y="-59">
    <pitch>
     <step>A</step>
     <octave>5</octave>
    </pitch>
    <duration>32</duration>
    <instrument id="P1-I1" />
    <voice>1</voice>
    <type>32nd</type>
    <accidental>natural</accidental>
    <stem>down</stem>
    <staff>1</staff>
    <beam number="1">continue</beam>
    <beam number="2">continue</beam>
    <beam number="3">continue</beam>
   </note>
   <direction>
    <direction-type>
     <dynamics default-x="113" default-y="-81" color="#000000" font-family="Opus Text Std" font-style="normal" font-size="10.2313" font-weight="normal">
      <ff />
     </dynamics>
    </direction-type>
    <voice>1</voice>
    <staff>1</staff>
   </direction>
   <direction>
    <direction-type>
     <wedge default-x="-15" default-y="-76" color="#000000" type="stop" />
    </direction-type>
    <voice>1</voice>
    <staff>1</staff>
   </direction>
   <direction>
    <direction-type>
     <wedge default-x="24" default-y="-76" color="#000000" type="diminuendo" number="2" />
    </direction-type>
    <voice>1</voice>
    <staff>1</staff>
   </direction>
   <note color="#000000" default-x="119" default-y="-59">
    <pitch>
     <step>E</step>
     <octave>6</octave>
    </pitch>
    <duration>32</duration>
    <instrument id="P1-I1" />
    <voice>1</voice>
    <type>32nd</type>
    <accidental>natural</accidental>
    <stem>down</stem>
    <staff>1</staff>
    <beam number="1">continue</beam>
    <beam number="2">continue</beam>
    <beam number="3">continue</beam>
   </note>
   <note color="#000000" default-x="156" default-y="-59">
    <pitch>
     <step>A</step>
     <alter>-1</alter>
     <octave>5</octave>
    </pitch>
    <duration>32</duration>
    <instrument id="P1-I1" />
    <voice>1</voice>
    <type>32nd</type>
    <accidental>flat</accidental>
    <stem>down</stem>
    <staff>1</staff>
    <beam number="1">end</beam>
    <beam number="2">end</beam>
    <beam number="3">end</beam>
   </note>
   <direction>
    <direction-type>
     <dynamics default-x="187" default-y="-81" color="#000000" font-family="Opus Text Std" font-style="normal" font-size="10.2313" font-weight="normal">
      <f />
     </dynamics>
    </direction-type>
    <voice>1</voice>
    <staff>1</staff>
   </direction>
   <direction>
    <direction-type>
     <wedge default-x="-15" default-y="-76" color="#000000" type="stop" number="2" />
    </direction-type>
    <voice>1</voice>
    <staff>1</staff>
   </direction>
   <note color="#000000" default-x="193" default-y="-55">
    <pitch>
     <step>B</step>
     <alter>-1</alter>
     <octave>4</octave>
    </pitch>
    <duration>64</duration>
    <instrument id="P1-I1" />
    <voice>1</voice>
    <type>16th</type>
    <accidental>flat</accidental>
    <stem>down</stem>
    <staff>1</staff>
    <notations>
     <slur color="#000000" type="stop" orientation="over" />
     <articulations>
      <staccato />
     </articulations>
    </notations>
   </note>
   <note default-x="237">
    <rest />
    <duration>128</duration>
    <instrument id="P1-I1" />
    <voice>1</voice>
    <type>eighth</type>
    <staff>1</staff>
   </note>
  </measure>
  <!--============== Part: P1, Measure: 11 ==============-->
  <measure number="11" width="284">
   <attributes>
    <time color="#000000">
     <beats>7</beats>
     <beat-type>16</beat-type>
    </time>
   </attributes>
   <direction>
    <direction-type>
     <dynamics default-x="38" default-y="-81" color="#000000" font-family="Opus Text Std" font-style="normal" font-size="10.2313" font-weight="normal">
      <f />
     </dynamics>
    </direction-type>
    <voice>1</voice>
    <staff>1</staff>
   </direction>
   <note color="#000000" default-x="44" default-y="-22">
    <pitch>
     <step>C</step>
     <octave>6</octave>
    </pitch>
    <duration>32</duration>
    <instrument id="P1-I1" />
    <voice>1</voice>
    <type>32nd</type>
    <accidental>natural</accidental>
    <stem>down</stem>
    <staff>1</staff>
    <notations>
     <slur color="#000000" type="start" orientation="over" />
    </notations>
   </note>
   <note color="#000000" default-x="81" default-y="-50">
    <pitch>
     <step>C</step>
     <alter>1</alter>
     <octave>5</octave>
    </pitch>
    <duration>64</duration>
    <instrument id="P1-I1" />
    <voice>1</voice>
    <type>16th</type>
    <accidental>sharp</accidental>
    <stem>down</stem>
    <staff>1</staff>
    <notations>
     <slur color="#000000" type="stop" orientation="over" />
     <articulations>
      <tenuto />
     </articulations>
    </notations>
   </note>
   <note color="#000000" default-x="125" default-y="-22">
    <pitch>
     <step>C</step>
     <octave>6</octave>
    </pitch>
    <duration>32</duration>
    <instrument id="P1-I1" />
    <voice>1</voice>
    <type>32nd</type>
    <accidental>natural</accidental>
    <stem>down</stem>
    <staff>1</staff>
    <notations>
     <slur color="#000000" type="start" orientation="over" />
    </notations>
   </note>
   <note color="#000000" default-x="162" default-y="-50">
    <pitch>
     <step>C</step>
     <alter>1</alter>
     <octave>5</octave>
    </pitch>
    <duration>64</duration>
    <instrument id="P1-I1" />
    <voice>1</voice>
    <type>16th</type>
    <accidental>sharp</accidental>
    <stem>down</stem>
    <staff>1</staff>
    <notations>
     <slur color="#000000" type="stop" orientation="over" />
     <articulations>
      <tenuto />
     </articulations>
    </notations>
   </note>
   <note default-x="205">
    <rest />
    <duration>256</duration>
    <instrument id="P1-I1" />
    <voice>1</voice>
    <type>quarter</type>
    <staff>1</staff>
   </note>
  </measure>
  <!--============== Part: P1, Measure: 12 ==============-->
  <measure number="12" width="301">
   <attributes>
    <time color="#000000">
     <beats>19</beats>
     <beat-type>32</beat-type>
    </time>
   </attributes>
   <direction>
    <direction-type>
     <dynamics default-x="42" default-y="-81" color="#000000" font-family="Opus Text Std" font-style="normal" font-size="10.2313" font-weight="normal">
      <p />
     </dynamics>
    </direction-type>
    <voice>1</voice>
    <staff>1</staff>
   </direction>
   <note color="#000000" default-x="48" default-y="-22">
    <pitch>
     <step>C</step>
     <octave>6</octave>
    </pitch>
    <duration>32</duration>
    <instrument id="P1-I1" />
    <voice>1</voice>
    <type>32nd</type>
    <stem>down</stem>
    <staff>1</staff>
    <notations>
     <slur color="#000000" type="start" orientation="over" />
    </notations>
   </note>
   <note color="#000000" default-x="85" default-y="-50">
    <pitch>
     <step>C</step>
     <alter>1</alter>
     <octave>5</octave>
    </pitch>
    <duration>64</duration>
    <instrument id="P1-I1" />
    <voice>1</voice>
    <type>16th</type>
    <accidental>sharp</accidental>
    <stem>down</stem>
    <staff>1</staff>
    <notations>
     <slur color="#000000" type="stop" orientation="over" />
     <articulations>
      <tenuto />
     </articulations>
    </notations>
   </note>
   <note default-x="128">
    <rest />
    <duration>256</duration>
    <instrument id="P1-I1" />
    <voice>1</voice>
    <type>quarter</type>
    <staff>1</staff>
    <notations>
     <fermata>normal</fermata>
    </notations>
   </note>
   <note default-x="207">
    <rest />
    <duration>256</duration>
    <instrument id="P1-I1" />
    <voice>1</voice>
    <type>quarter</type>
    <staff>1</staff>
    <notations>
     <fermata>normal</fermata>
    </notations>
   </note>
   <barline>
    <bar-style>light-heavy</bar-style>
   </barline>
  </measure>
 </part>
</score-partwise>
